<svg xmlns="http://www.w3.org/2000/svg" viewBox="0 0 1254 1254">
  <path id="1" fill="none" stroke="black" stroke-width="6.3" d="M 841.0 295.0 C 840.7 295.5 841.3 296.3 839.0 298.0 C 836.7 299.7 831.0 301.3 827.0 305.0 C 823.0 308.7 818.0 314.2 815.0 320.0 C 812.0 325.8 810.0 333.8 809.0 340.0 C 808.0 346.2 808.3 351.2 809.0 357.0 C 809.7 362.8 811.2 369.0 813.0 375.0 C 814.8 381.0 813.0 379.2 820.0 393.0 C 827.0 406.8 847.8 443.3 855.0 458.0 C 862.2 472.7 861.2 474.7 863.0 481.0 C 864.8 487.3 865.3 486.3 866.0 496.0 C 866.7 505.7 867.2 529.8 867.0 539.0 C 866.8 548.2 866.8 544.5 865.0 551.0 C 863.2 557.5 858.3 572.0 856.0 578.0 C 853.7 584.0 852.5 585.0 851.0 587.0 C 849.5 589.0 847.7 589.5 847.0 590.0"/>
  <path id="2" fill="none" stroke="black" stroke-width="4.0" d="M 850.0 527.0 C 850.2 531.0 851.8 541.7 851.0 551.0 C 850.2 560.3 845.8 576.5 845.0 583.0 C 844.2 589.5 845.8 588.8 846.0 590.0"/>
  <path id="3" fill="none" stroke="black" stroke-width="8.1" d="M 846.0 591.0 C 845.2 592.5 842.2 596.5 841.0 600.0 C 839.8 603.5 839.3 610.0 839.0 612.0"/>
  <path id="4" fill="none" stroke="black" stroke-width="6.3" d="M 839.0 612.0 C 839.3 612.3 840.5 611.8 841.0 614.0 C 841.5 616.2 842.3 617.3 842.0 625.0 C 841.7 632.7 840.7 650.7 839.0 660.0 C 837.3 669.3 834.5 675.0 832.0 681.0 C 829.5 687.0 826.3 692.3 824.0 696.0 C 821.7 699.7 819.0 701.8 818.0 703.0"/>
  <path id="5" fill="none" stroke="black" stroke-width="4.5" d="M 839.0 612.0 C 838.2 612.5 836.5 611.0 834.0 615.0 C 831.5 619.0 828.3 629.0 824.0 636.0 C 819.7 643.0 810.7 653.5 808.0 657.0"/>
  <path id="6" fill="none" stroke="black" stroke-width="6.0" d="M 888.0 292.0 C 886.5 292.3 886.7 293.7 879.0 294.0 C 871.3 294.3 848.2 294.0 842.0 294.0"/>
  <path id="7" fill="none" stroke="black" stroke-width="5.7" d="M 888.0 292.0 L 950.0 321.0"/>
  <path id="8" fill="none" stroke="black" stroke-width="6.3" d="M 816.0 703.0 C 812.3 709.0 800.3 730.3 794.0 739.0 C 787.7 747.7 781.7 752.0 778.0 755.0 C 774.3 758.0 773.0 756.7 772.0 757.0"/>
  <path id="9" fill="none" stroke="black" stroke-width="7.2" d="M 771.0 757.0 L 741.0 788.0"/>
  <path id="10" fill="none" stroke="black" stroke-width="6.3" d="M 741.0 789.0 C 738.0 796.5 727.2 825.0 723.0 834.0 C 718.8 843.0 717.8 841.3 716.0 843.0 C 714.2 844.7 712.7 843.8 712.0 844.0"/>
  <path id="11" fill="none" stroke="black" stroke-width="4.5" d="M 740.0 788.0 C 738.8 788.3 737.7 787.5 733.0 790.0 C 728.3 792.5 715.5 800.8 712.0 803.0"/>
  <path id="12" fill="none" stroke="black" stroke-width="4.5" d="M 783.0 731.0 C 781.2 734.2 774.0 745.8 772.0 750.0 C 770.0 754.2 771.2 755.0 771.0 756.0"/>
  <path id="13" fill="none" stroke="black" stroke-width="6.3" d="M 711.0 845.0 C 710.2 845.8 707.7 847.5 706.0 850.0 C 704.3 852.5 703.2 854.8 701.0 860.0 C 698.8 865.2 695.3 873.7 693.0 881.0 C 690.7 888.3 688.2 898.0 687.0 904.0 C 685.8 910.0 685.3 913.3 686.0 917.0 C 686.7 920.7 690.2 922.5 691.0 926.0 C 691.8 929.5 691.3 935.2 691.0 938.0 C 690.7 940.8 689.3 942.2 689.0 943.0"/>
  <path id="14" fill="none" stroke="black" stroke-width="4.5" d="M 714.0 831.0 L 711.0 843.0"/>
  <path id="15" fill="none" stroke="black" stroke-width="6.3" d="M 689.0 945.0 C 690.0 948.8 690.5 954.8 695.0 968.0 C 699.5 981.2 709.0 1007.2 716.0 1024.0 C 723.0 1040.8 732.2 1059.5 737.0 1069.0 C 741.8 1078.5 741.3 1077.0 745.0 1081.0 C 748.7 1085.0 754.2 1090.0 759.0 1093.0 C 763.8 1096.0 769.7 1097.7 774.0 1099.0 C 778.3 1100.3 776.3 1100.8 785.0 1101.0 C 793.7 1101.2 818.0 1099.8 826.0 1100.0 C 834.0 1100.2 830.3 1100.7 833.0 1102.0 C 835.7 1103.3 840.5 1107.0 842.0 1108.0"/>
  <path id="16" fill="none" stroke="black" stroke-width="6.3" d="M 843.0 1109.0 C 844.3 1109.2 847.7 1108.3 851.0 1110.0 C 854.3 1111.7 860.5 1116.7 863.0 1119.0 C 865.5 1121.3 865.7 1121.8 866.0 1124.0 C 866.3 1126.2 865.2 1130.7 865.0 1132.0"/>
  <path id="17" fill="none" stroke="black" stroke-width="6.8" d="M 842.0 1121.0 C 843.5 1121.2 847.2 1120.2 851.0 1122.0 C 854.8 1123.8 862.7 1130.3 865.0 1132.0"/>
  <path id="18" fill="none" stroke="black" stroke-width="6.0" d="M 783.0 1116.0 C 783.3 1115.7 781.2 1114.3 785.0 1114.0 C 788.8 1113.7 800.7 1113.7 806.0 1114.0 C 811.3 1114.3 813.5 1114.8 817.0 1116.0 C 820.5 1117.2 823.2 1120.2 827.0 1121.0 C 830.8 1121.8 837.8 1121.0 840.0 1121.0"/>
  <path id="19" fill="none" stroke="black" stroke-width="6.0" d="M 746.0 1097.0 C 748.0 1098.8 753.8 1105.2 758.0 1108.0 C 762.2 1110.8 767.0 1112.7 771.0 1114.0 C 775.0 1115.3 780.2 1115.7 782.0 1116.0"/>
  <path id="20" fill="none" stroke="black" stroke-width="6.3" d="M 783.0 1117.0 C 783.5 1117.8 784.0 1120.8 786.0 1122.0 C 788.0 1123.2 792.0 1122.8 795.0 1124.0 C 798.0 1125.2 802.0 1127.7 804.0 1129.0 C 806.0 1130.3 806.5 1131.0 807.0 1132.0 C 807.5 1133.0 807.0 1134.5 807.0 1135.0"/>
  <path id="21" fill="none" stroke="black" stroke-width="4.2" d="M 807.0 1136.0 C 806.2 1136.7 802.8 1138.3 802.0 1140.0 C 801.2 1141.7 802.0 1145.0 802.0 1146.0"/>
  <path id="22" fill="none" stroke="black" stroke-width="6.3" d="M 808.0 1136.0 C 808.8 1136.3 811.0 1136.2 813.0 1138.0 C 815.0 1139.8 818.7 1143.3 820.0 1147.0 C 821.3 1150.7 821.3 1157.5 821.0 1160.0 C 820.7 1162.5 818.5 1161.7 818.0 1162.0"/>
  <path id="23" fill="none" stroke="black" stroke-width="6.3" d="M 803.0 1147.0 C 804.3 1147.8 808.7 1149.5 811.0 1152.0 C 813.3 1154.5 816.0 1160.3 817.0 1162.0"/>
  <path id="24" fill="none" stroke="black" stroke-width="6.3" d="M 730.0 1107.0 C 731.3 1107.7 734.3 1108.5 738.0 1111.0 C 741.7 1113.5 745.3 1118.3 752.0 1122.0 C 758.7 1125.7 771.5 1129.2 778.0 1133.0 C 784.5 1136.8 787.2 1142.7 791.0 1145.0 C 794.8 1147.3 799.3 1146.7 801.0 1147.0"/>
  <path id="25" fill="none" stroke="black" stroke-width="6.3" d="M 729.0 1107.0 C 726.0 1106.8 716.5 1104.8 711.0 1106.0 C 705.5 1107.2 700.0 1112.8 696.0 1114.0 C 692.0 1115.2 688.5 1113.2 687.0 1113.0"/>
  <path id="26" fill="none" stroke="black" stroke-width="6.0" d="M 686.0 1113.0 C 685.2 1113.5 682.3 1114.2 681.0 1116.0 C 679.7 1117.8 678.5 1122.7 678.0 1124.0"/>
  <path id="27" fill="none" stroke="black" stroke-width="6.3" d="M 681.0 1102.0 C 679.8 1102.7 675.7 1104.2 674.0 1106.0 C 672.3 1107.8 671.3 1110.5 671.0 1113.0 C 670.7 1115.5 671.0 1119.2 672.0 1121.0 C 673.0 1122.8 676.2 1123.5 677.0 1124.0"/>
  <path id="28" fill="none" stroke="black" stroke-width="4.2" d="M 682.0 1102.0 C 682.8 1102.8 686.3 1105.3 687.0 1107.0 C 687.7 1108.7 686.2 1111.2 686.0 1112.0"/>
  <path id="29" fill="none" stroke="black" stroke-width="6.3" d="M 668.0 873.0 C 667.5 878.8 665.8 901.0 665.0 908.0 C 664.2 915.0 664.3 912.3 663.0 915.0 C 661.7 917.7 658.3 920.8 657.0 924.0 C 655.7 927.2 654.8 931.0 655.0 934.0 C 655.2 937.0 656.5 939.8 658.0 942.0 C 659.5 944.2 658.3 936.7 664.0 947.0 C 669.7 957.3 684.3 987.2 692.0 1004.0 C 699.7 1020.8 706.0 1036.8 710.0 1048.0 C 714.0 1059.2 715.0 1064.7 716.0 1071.0 C 717.0 1077.3 716.8 1082.3 716.0 1086.0 C 715.2 1089.7 712.5 1091.5 711.0 1093.0 C 709.5 1094.5 710.5 1094.7 707.0 1095.0 C 703.5 1095.3 693.7 1094.7 690.0 1095.0 C 686.3 1095.3 686.3 1096.0 685.0 1097.0 C 683.7 1098.0 682.5 1100.3 682.0 1101.0"/>
  <path id="30" fill="none" stroke="black" stroke-width="6.0" d="M 662.0 832.0 C 662.3 836.7 663.3 853.5 664.0 860.0 C 664.7 866.5 665.3 868.8 666.0 871.0 C 666.7 873.2 667.7 872.7 668.0 873.0"/>
  <path id="31" fill="none" stroke="black" stroke-width="2.8" d="M 678.0 844.0 C 677.2 846.2 674.0 852.8 673.0 857.0 C 672.0 861.2 672.8 866.3 672.0 869.0 C 671.2 871.7 668.7 872.3 668.0 873.0"/>
  <path id="32" fill="none" stroke="black" stroke-width="6.3" d="M 661.0 832.0 C 660.2 832.5 657.3 833.3 656.0 835.0 C 654.7 836.7 655.5 838.2 653.0 842.0 C 650.5 845.8 644.2 854.7 641.0 858.0 C 637.8 861.3 635.2 861.3 634.0 862.0"/>
  <path id="33" fill="none" stroke="black" stroke-width="6.3" d="M 633.0 862.0 C 630.0 866.0 620.3 877.5 615.0 886.0 C 609.7 894.5 604.0 906.7 601.0 913.0 C 598.0 919.3 597.5 919.2 597.0 924.0 C 596.5 928.8 598.2 938.2 598.0 942.0 C 597.8 945.8 597.3 945.2 596.0 947.0 C 594.7 948.8 591.0 952.0 590.0 953.0"/>
  <path id="34" fill="none" stroke="black" stroke-width="6.0" d="M 590.0 954.0 C 589.2 959.5 586.3 971.8 585.0 987.0 C 583.7 1002.2 582.3 1029.3 582.0 1045.0 C 581.7 1060.7 581.8 1070.5 583.0 1081.0 C 584.2 1091.5 586.8 1101.7 589.0 1108.0 C 591.2 1114.3 591.7 1115.3 596.0 1119.0 C 600.3 1122.7 608.7 1127.5 615.0 1130.0 C 621.3 1132.5 626.2 1133.3 634.0 1134.0 C 641.8 1134.7 655.3 1133.3 662.0 1134.0 C 668.7 1134.7 671.5 1136.7 674.0 1138.0 C 676.5 1139.3 676.5 1141.3 677.0 1142.0"/>
  <path id="35" fill="none" stroke="black" stroke-width="6.3" d="M 678.0 1143.0 C 679.8 1143.5 686.0 1144.3 689.0 1146.0 C 692.0 1147.7 694.5 1151.3 696.0 1153.0 C 697.5 1154.7 697.7 1154.2 698.0 1156.0 C 698.3 1157.8 698.0 1162.7 698.0 1164.0"/>
  <path id="36" fill="none" stroke="black" stroke-width="7.2" d="M 677.0 1155.0 C 678.2 1155.2 681.3 1154.7 684.0 1156.0 C 686.7 1157.3 690.8 1161.7 693.0 1163.0 C 695.2 1164.3 696.3 1163.8 697.0 1164.0"/>
  <path id="37" fill="none" stroke="black" stroke-width="6.3" d="M 603.0 1144.0 C 604.0 1143.8 606.0 1142.7 609.0 1143.0 C 612.0 1143.3 615.0 1145.2 621.0 1146.0 C 627.0 1146.8 638.0 1146.3 645.0 1148.0 C 652.0 1149.7 657.8 1154.8 663.0 1156.0 C 668.2 1157.2 673.8 1155.2 676.0 1155.0"/>
  <path id="38" fill="none" stroke="black" stroke-width="6.3" d="M 603.0 1145.0 C 603.7 1146.2 604.5 1149.8 607.0 1152.0 C 609.5 1154.2 615.3 1156.2 618.0 1158.0 C 620.7 1159.8 622.0 1161.3 623.0 1163.0 C 624.0 1164.7 623.8 1167.2 624.0 1168.0"/>
  <path id="39" fill="none" stroke="black" stroke-width="5.1" d="M 582.0 1122.0 C 583.3 1124.2 586.7 1131.3 590.0 1135.0 C 593.3 1138.7 600.0 1142.5 602.0 1144.0"/>
  <path id="40" fill="none" stroke="black" stroke-width="4.2" d="M 624.0 1169.0 C 622.8 1169.7 618.3 1171.3 617.0 1173.0 C 615.7 1174.7 616.2 1178.0 616.0 1179.0"/>
  <path id="41" fill="none" stroke="black" stroke-width="6.3" d="M 625.0 1169.0 C 626.3 1171.2 631.7 1177.8 633.0 1182.0 C 634.3 1186.2 633.7 1191.5 633.0 1194.0 C 632.3 1196.5 629.7 1196.5 629.0 1197.0"/>
  <path id="42" fill="none" stroke="black" stroke-width="6.3" d="M 617.0 1180.0 C 618.0 1180.8 621.0 1182.2 623.0 1185.0 C 625.0 1187.8 628.0 1195.0 629.0 1197.0"/>
  <path id="43" fill="none" stroke="black" stroke-width="7.2" d="M 567.0 1136.0 C 569.7 1138.7 577.5 1147.2 583.0 1152.0 C 588.5 1156.8 596.2 1161.0 600.0 1165.0 C 603.8 1169.0 603.5 1173.5 606.0 1176.0 C 608.5 1178.5 613.5 1179.3 615.0 1180.0"/>
  <path id="44" fill="none" stroke="black" stroke-width="6.3" d="M 565.0 1136.0 C 562.0 1135.7 552.5 1133.7 547.0 1134.0 C 541.5 1134.3 536.0 1136.5 532.0 1138.0 C 528.0 1139.5 525.8 1142.0 523.0 1143.0 C 520.2 1144.0 517.7 1144.2 515.0 1144.0 C 512.3 1143.8 508.3 1142.3 507.0 1142.0"/>
  <path id="45" fill="none" stroke="black" stroke-width="7.2" d="M 506.0 1142.0 C 504.3 1142.5 499.0 1143.2 496.0 1145.0 C 493.0 1146.8 489.3 1151.7 488.0 1153.0"/>
  <path id="46" fill="none" stroke="black" stroke-width="4.5" d="M 505.0 1129.0 C 505.5 1129.8 507.7 1132.0 508.0 1134.0 C 508.3 1136.0 507.2 1139.8 507.0 1141.0"/>
  <path id="47" fill="none" stroke="black" stroke-width="6.0" d="M 592.0 873.0 C 590.3 878.3 585.2 897.0 582.0 905.0 C 578.8 913.0 576.0 916.8 573.0 921.0 C 570.0 925.2 565.8 927.5 564.0 930.0 C 562.2 932.5 562.3 934.0 562.0 936.0 C 561.7 938.0 561.3 939.5 562.0 942.0 C 562.7 944.5 565.0 938.0 566.0 951.0 C 567.0 964.0 568.2 997.7 568.0 1020.0 C 567.8 1042.3 566.5 1070.2 565.0 1085.0 C 563.5 1099.8 561.0 1103.7 559.0 1109.0 C 557.0 1114.3 555.5 1114.8 553.0 1117.0 C 550.5 1119.2 547.0 1120.8 544.0 1122.0 C 541.0 1123.2 539.3 1123.8 535.0 1124.0 C 530.7 1124.2 522.3 1122.8 518.0 1123.0 C 513.7 1123.2 511.2 1124.0 509.0 1125.0 C 506.8 1126.0 505.7 1128.3 505.0 1129.0"/>
  <path id="48" fill="none" stroke="black" stroke-width="6.3" d="M 505.0 1129.0 C 504.0 1129.2 501.5 1128.8 499.0 1130.0 C 496.5 1131.2 492.5 1133.0 490.0 1136.0 C 487.5 1139.0 484.7 1145.2 484.0 1148.0 C 483.3 1150.8 485.7 1152.2 486.0 1153.0"/>
  <path id="49" fill="none" stroke="black" stroke-width="6.0" d="M 595.0 839.0 C 594.3 842.7 591.5 855.5 591.0 861.0 C 590.5 866.5 591.8 870.2 592.0 872.0"/>
  <path id="50" fill="none" stroke="black" stroke-width="2.8" d="M 605.0 850.0 C 603.5 853.3 598.0 866.3 596.0 870.0 C 594.0 873.7 593.5 871.7 593.0 872.0"/>
  <path id="51" fill="none" stroke="black" stroke-width="5.7" d="M 594.0 838.0 L 571.0 848.0"/>
  <path id="52" fill="none" stroke="black" stroke-width="4.5" d="M 616.0 813.0 C 613.7 815.2 605.5 822.0 602.0 826.0 C 598.5 830.0 596.2 835.2 595.0 837.0"/>
  <path id="53" fill="none" stroke="black" stroke-width="2.8" d="M 820.0 678.0 L 815.0 700.0"/>
  <path id="54" fill="none" stroke="black" stroke-width="2.8" d="M 839.0 292.0 C 837.5 292.0 833.5 290.8 830.0 292.0 C 826.5 293.2 820.0 297.8 818.0 299.0"/>
  <path id="55" fill="none" stroke="black" stroke-width="6.0" d="M 569.0 844.0 C 568.0 844.2 567.0 843.2 563.0 845.0 C 559.0 846.8 550.7 853.5 545.0 855.0 C 539.3 856.5 531.7 854.2 529.0 854.0"/>
  <path id="56" fill="none" stroke="black" stroke-width="6.3" d="M 528.0 854.0 C 527.2 854.2 527.2 852.8 523.0 855.0 C 518.8 857.2 508.2 864.7 503.0 867.0 C 497.8 869.3 493.8 868.7 492.0 869.0"/>
  <path id="57" fill="none" stroke="black" stroke-width="7.2" d="M 542.0 838.0 C 540.0 839.8 532.2 846.5 530.0 849.0 C 527.8 851.5 529.2 852.3 529.0 853.0"/>
  <path id="58" fill="none" stroke="black" stroke-width="5.7" d="M 563.0 800.0 L 543.0 837.0"/>
  <path id="59" fill="none" stroke="black" stroke-width="6.0" d="M 589.0 797.0 C 586.7 797.7 579.2 800.5 575.0 801.0 C 570.8 801.5 565.8 800.2 564.0 800.0"/>
  <path id="60" fill="none" stroke="black" stroke-width="7.2" d="M 612.0 781.0 C 611.2 781.3 610.7 780.3 607.0 783.0 C 603.3 785.7 592.8 794.7 590.0 797.0"/>
  <path id="61" fill="none" stroke="black" stroke-width="5.1" d="M 642.0 722.0 C 639.3 728.0 630.7 749.2 626.0 758.0 C 621.3 766.8 616.3 771.2 614.0 775.0 C 611.7 778.8 612.3 780.0 612.0 781.0"/>
  <path id="62" fill="none" stroke="black" stroke-width="6.3" d="M 656.0 752.0 C 653.2 755.0 643.7 765.7 639.0 770.0 C 634.3 774.3 631.8 776.0 628.0 778.0 C 624.2 780.0 618.7 781.5 616.0 782.0 C 613.3 782.5 612.7 781.2 612.0 781.0"/>
  <path id="63" fill="none" stroke="black" stroke-width="6.3" d="M 616.0 570.0 C 618.3 568.5 624.2 564.0 630.0 561.0 C 635.8 558.0 644.5 554.0 651.0 552.0 C 657.5 550.0 663.3 549.2 669.0 549.0 C 674.7 548.8 680.3 549.8 685.0 551.0 C 689.7 552.2 692.5 553.0 697.0 556.0 C 701.5 559.0 707.8 563.8 712.0 569.0 C 716.2 574.2 719.7 582.0 722.0 587.0 C 724.3 592.0 725.0 594.8 726.0 599.0 C 727.0 603.2 727.8 603.8 728.0 612.0 C 728.2 620.2 727.8 639.2 727.0 648.0 C 726.2 656.8 725.0 658.8 723.0 665.0 C 721.0 671.2 718.2 678.2 715.0 685.0 C 711.8 691.8 708.7 698.7 704.0 706.0 C 699.3 713.3 693.0 722.2 687.0 729.0 C 681.0 735.8 673.0 743.2 668.0 747.0 C 663.0 750.8 658.8 751.2 657.0 752.0"/>
  <path id="64" fill="none" stroke="black" stroke-width="6.3" d="M 590.0 798.0 C 589.8 798.8 591.8 799.2 589.0 803.0 C 586.2 806.8 578.5 815.8 573.0 821.0 C 567.5 826.2 560.8 831.2 556.0 834.0 C 551.2 836.8 546.0 837.3 544.0 838.0"/>
  <path id="65" fill="none" stroke="black" stroke-width="4.5" d="M 668.0 716.0 C 668.2 716.8 670.8 716.2 669.0 721.0 C 667.2 725.8 659.2 740.0 657.0 745.0 C 654.8 750.0 656.2 750.0 656.0 751.0"/>
  <path id="66" fill="none" stroke="black" stroke-width="5.7" d="M 668.0 716.0 C 665.2 717.2 655.2 722.2 651.0 723.0 C 646.8 723.8 644.3 721.3 643.0 721.0"/>
  <path id="67" fill="none" stroke="black" stroke-width="5.7" d="M 683.0 700.0 L 668.0 716.0"/>
  <path id="68" fill="none" stroke="black" stroke-width="4.0" d="M 693.0 669.0 C 692.5 671.2 691.7 677.0 690.0 682.0 C 688.3 687.0 684.2 696.2 683.0 699.0"/>
  <path id="69" fill="none" stroke="black" stroke-width="4.5" d="M 702.0 683.0 C 701.5 684.0 701.2 686.3 699.0 689.0 C 696.8 691.7 691.5 697.2 689.0 699.0 C 686.5 700.8 684.8 699.8 684.0 700.0"/>
  <path id="70" fill="none" stroke="black" stroke-width="4.0" d="M 687.0 658.0 C 687.2 659.2 687.0 663.3 688.0 665.0 C 689.0 666.7 692.2 667.5 693.0 668.0"/>
  <path id="71" fill="none" stroke="black" stroke-width="4.5" d="M 707.0 657.0 C 705.7 658.7 701.2 665.2 699.0 667.0 C 696.8 668.8 694.8 667.8 694.0 668.0"/>
  <path id="72" fill="none" stroke="black" stroke-width="4.5" d="M 686.0 657.0 C 683.2 658.7 672.7 665.3 669.0 667.0 C 665.3 668.7 664.8 667.0 664.0 667.0"/>
  <path id="73" fill="none" stroke="black" stroke-width="4.5" d="M 663.0 668.0 C 662.0 670.3 658.0 679.0 657.0 682.0 C 656.0 685.0 659.3 681.3 657.0 686.0 C 654.7 690.7 645.3 706.0 643.0 710.0"/>
  <path id="74" fill="none" stroke="black" stroke-width="5.7" d="M 642.0 711.0 C 638.3 713.2 625.8 721.5 620.0 724.0 C 614.2 726.5 609.2 725.7 607.0 726.0"/>
  <path id="75" fill="none" stroke="black" stroke-width="4.0" d="M 606.0 708.0 C 605.3 710.0 602.0 717.0 602.0 720.0 C 602.0 723.0 605.3 725.0 606.0 726.0"/>
  <path id="76" fill="none" stroke="black" stroke-width="5.7" d="M 606.0 727.0 C 603.8 731.7 596.3 748.5 593.0 755.0 C 589.7 761.5 591.0 760.0 586.0 766.0 C 581.0 772.0 566.8 786.8 563.0 791.0"/>
  <path id="77" fill="none" stroke="black" stroke-width="6.0" d="M 562.0 792.0 C 561.0 792.2 559.7 791.5 556.0 793.0 C 552.3 794.5 545.0 799.5 540.0 801.0 C 535.0 802.5 528.3 801.8 526.0 802.0"/>
  <path id="78" fill="none" stroke="black" stroke-width="5.7" d="M 525.0 803.0 C 521.5 809.0 510.5 829.3 504.0 839.0 C 497.5 848.7 489.0 857.3 486.0 861.0"/>
  <path id="79" fill="none" stroke="black" stroke-width="4.5" d="M 605.0 707.0 C 601.7 708.8 590.2 715.7 585.0 718.0 C 579.8 720.3 575.8 720.5 574.0 721.0"/>
  <path id="80" fill="none" stroke="black" stroke-width="4.0" d="M 628.0 666.0 C 626.7 669.2 623.7 678.3 620.0 685.0 C 616.3 691.7 608.3 702.5 606.0 706.0"/>
  <path id="81" fill="none" stroke="black" stroke-width="4.0" d="M 629.0 638.0 C 627.8 641.5 623.2 655.2 622.0 659.0 C 620.8 662.8 621.0 660.0 622.0 661.0 C 623.0 662.0 627.0 664.3 628.0 665.0"/>
  <path id="82" fill="none" stroke="black" stroke-width="4.5" d="M 659.0 650.0 C 658.3 650.2 657.5 649.3 655.0 651.0 C 652.5 652.7 648.3 657.7 644.0 660.0 C 639.7 662.3 631.5 664.2 629.0 665.0"/>
  <path id="83" fill="none" stroke="black" stroke-width="4.0" d="M 594.0 627.0 C 592.2 630.3 584.8 643.3 583.0 647.0 C 581.2 650.7 582.3 648.2 583.0 649.0 C 583.7 649.8 585.3 651.3 587.0 652.0 C 588.7 652.7 589.8 653.3 593.0 653.0 C 596.2 652.7 600.2 652.7 606.0 650.0 C 611.8 647.3 624.3 639.2 628.0 637.0"/>
  <path id="84" fill="none" stroke="black" stroke-width="7.2" d="M 485.0 862.0 C 484.2 862.2 483.5 861.0 480.0 863.0 C 476.5 865.0 466.7 872.2 464.0 874.0"/>
  <path id="85" fill="none" stroke="black" stroke-width="7.7" d="M 463.0 875.0 C 462.8 875.8 464.2 876.2 462.0 880.0 C 459.8 883.8 452.0 895.0 450.0 898.0"/>
  <path id="86" fill="none" stroke="black" stroke-width="6.3" d="M 450.0 898.0 C 448.3 899.3 444.0 901.7 440.0 906.0 C 436.0 910.3 429.5 918.8 426.0 924.0 C 422.5 929.2 421.0 934.2 419.0 937.0 C 417.0 939.8 414.8 940.3 414.0 941.0"/>
  <path id="87" fill="none" stroke="black" stroke-width="4.5" d="M 441.0 873.0 C 439.7 874.3 436.2 876.5 433.0 881.0 C 429.8 885.5 425.3 892.3 422.0 900.0 C 418.7 907.7 414.5 920.2 413.0 927.0 C 411.5 933.8 413.0 938.7 413.0 941.0"/>
  <path id="88" fill="none" stroke="black" stroke-width="6.3" d="M 413.0 942.0 C 412.8 944.3 411.8 951.8 412.0 956.0 C 412.2 960.2 412.8 964.2 414.0 967.0 C 415.2 969.8 417.7 971.8 419.0 973.0 C 420.3 974.2 420.3 974.3 422.0 974.0 C 423.7 973.7 428.2 972.3 429.0 971.0 C 429.8 969.7 427.0 967.8 427.0 966.0 C 427.0 964.2 427.7 961.2 429.0 960.0 C 430.3 958.8 433.2 958.3 435.0 959.0 C 436.8 959.7 439.2 961.3 440.0 964.0 C 440.8 966.7 441.2 971.7 440.0 975.0 C 438.8 978.3 435.5 982.0 433.0 984.0 C 430.5 986.0 428.8 986.8 425.0 987.0 C 421.2 987.2 414.5 987.0 410.0 985.0 C 405.5 983.0 400.8 978.5 398.0 975.0 C 395.2 971.5 394.3 966.2 393.0 964.0 C 391.7 961.8 390.5 962.3 390.0 962.0"/>
  <path id="89" fill="none" stroke="black" stroke-width="6.0" d="M 442.0 873.0 C 442.3 873.3 440.7 874.8 444.0 875.0 C 447.3 875.2 459.0 874.2 462.0 874.0"/>
  <path id="90" fill="none" stroke="black" stroke-width="4.0" d="M 409.0 880.0 C 409.0 880.5 411.0 878.5 409.0 883.0 C 407.0 887.5 399.8 900.0 397.0 907.0 C 394.2 914.0 393.3 916.0 392.0 925.0 C 390.7 934.0 389.5 955.0 389.0 961.0"/>
  <path id="91" fill="none" stroke="black" stroke-width="6.3" d="M 388.0 962.0 C 386.3 965.2 382.3 975.2 378.0 981.0 C 373.7 986.8 366.2 993.7 362.0 997.0 C 357.8 1000.3 356.7 1000.3 353.0 1001.0 C 349.3 1001.7 343.2 1001.8 340.0 1001.0 C 336.8 1000.2 335.2 998.2 334.0 996.0 C 332.8 993.8 332.2 990.0 333.0 988.0 C 333.8 986.0 337.2 983.7 339.0 984.0 C 340.8 984.3 343.2 989.0 344.0 990.0"/>
  <path id="92" fill="none" stroke="black" stroke-width="6.0" d="M 441.0 867.0 C 440.2 867.2 439.5 866.3 436.0 868.0 C 432.5 869.7 424.3 875.2 420.0 877.0 C 415.7 878.8 411.7 878.7 410.0 879.0"/>
  <path id="93" fill="none" stroke="black" stroke-width="5.7" d="M 491.0 797.0 C 490.8 797.8 493.5 796.0 490.0 802.0 C 486.5 808.0 475.2 825.3 470.0 833.0 C 464.8 840.7 463.7 842.5 459.0 848.0 C 454.3 853.5 444.8 863.0 442.0 866.0"/>
  <path id="94" fill="none" stroke="black" stroke-width="5.7" d="M 497.0 760.0 C 496.7 760.8 498.2 760.7 495.0 765.0 C 491.8 769.3 480.7 781.3 478.0 786.0 C 475.3 790.7 478.0 791.3 479.0 793.0 C 480.0 794.7 482.2 795.5 484.0 796.0 C 485.8 796.5 489.0 796.0 490.0 796.0"/>
  <path id="95" fill="none" stroke="black" stroke-width="4.5" d="M 544.0 713.0 C 541.3 716.3 533.7 726.7 528.0 733.0 C 522.3 739.3 515.2 746.5 510.0 751.0 C 504.8 755.5 499.2 758.5 497.0 760.0"/>
  <path id="96" fill="none" stroke="black" stroke-width="6.0" d="M 462.0 756.0 C 462.7 756.8 464.2 759.8 466.0 761.0 C 467.8 762.2 470.5 762.7 473.0 763.0 C 475.5 763.3 477.3 763.7 481.0 763.0 C 484.7 762.3 492.3 759.5 495.0 759.0 C 497.7 758.5 496.7 759.8 497.0 760.0"/>
  <path id="97" fill="none" stroke="black" stroke-width="5.7" d="M 483.0 723.0 C 480.7 726.7 472.2 740.5 469.0 745.0 C 465.8 749.5 465.2 748.2 464.0 750.0 C 462.8 751.8 462.3 755.0 462.0 756.0"/>
  <path id="98" fill="none" stroke="black" stroke-width="5.7" d="M 462.0 756.0 C 461.5 756.2 462.7 753.7 459.0 757.0 C 455.3 760.3 443.2 772.8 440.0 776.0"/>
  <path id="99" fill="none" stroke="black" stroke-width="4.0" d="M 494.0 682.0 C 491.7 684.8 483.8 693.3 480.0 699.0 C 476.2 704.7 472.0 712.3 471.0 716.0 C 470.0 719.7 472.2 720.0 474.0 721.0 C 475.8 722.0 480.7 721.8 482.0 722.0"/>
  <path id="100" fill="none" stroke="black" stroke-width="4.5" d="M 515.0 697.0 C 511.3 700.3 498.2 712.8 493.0 717.0 C 487.8 721.2 485.5 721.2 484.0 722.0"/>
  <path id="101" fill="none" stroke="black" stroke-width="4.5" d="M 439.0 777.0 C 438.2 777.2 436.7 776.5 434.0 778.0 C 431.3 779.5 427.8 783.2 423.0 786.0 C 418.2 788.8 408.0 793.5 405.0 795.0"/>
  <path id="102" fill="none" stroke="black" stroke-width="6.3" d="M 404.0 796.0 C 403.7 797.2 406.2 795.8 402.0 803.0 C 397.8 810.2 386.2 829.3 379.0 839.0 C 371.8 848.7 364.8 855.8 359.0 861.0 C 353.2 866.2 348.2 868.0 344.0 870.0 C 339.8 872.0 338.3 872.5 334.0 873.0 C 329.7 873.5 321.2 873.3 318.0 873.0 C 314.8 872.7 315.7 872.0 315.0 871.0 C 314.3 870.0 314.2 867.7 314.0 867.0"/>
  <path id="103" fill="none" stroke="black" stroke-width="6.3" d="M 451.0 717.0 C 446.8 722.8 431.8 744.5 426.0 752.0 C 420.2 759.5 420.8 758.3 416.0 762.0 C 411.2 765.7 401.3 771.7 397.0 774.0 C 392.7 776.3 394.3 775.7 390.0 776.0 C 385.7 776.3 375.5 776.7 371.0 776.0 C 366.5 775.3 365.2 773.8 363.0 772.0 C 360.8 770.2 358.3 766.8 358.0 765.0 C 357.7 763.2 359.7 761.3 361.0 761.0 C 362.3 760.7 364.3 762.8 366.0 763.0 C 367.7 763.2 370.0 763.3 371.0 762.0 C 372.0 760.7 372.5 757.0 372.0 755.0 C 371.5 753.0 370.2 751.0 368.0 750.0 C 365.8 749.0 361.3 748.8 359.0 749.0 C 356.7 749.2 355.7 749.8 354.0 751.0 C 352.3 752.2 350.3 753.8 349.0 756.0 C 347.7 758.2 346.5 761.3 346.0 764.0 C 345.5 766.7 345.5 769.3 346.0 772.0 C 346.5 774.7 347.0 777.0 349.0 780.0 C 351.0 783.0 355.3 787.7 358.0 790.0 C 360.7 792.3 361.8 792.8 365.0 794.0 C 368.2 795.2 370.7 796.8 377.0 797.0 C 383.3 797.2 398.7 795.3 403.0 795.0"/>
  <path id="104" fill="none" stroke="black" stroke-width="2.8" d="M 440.0 778.0 L 413.0 819.0"/>
  <path id="105" fill="none" stroke="black" stroke-width="4.5" d="M 511.0 651.0 C 508.8 654.3 500.7 666.0 498.0 671.0 C 495.3 676.0 495.5 679.3 495.0 681.0"/>
  <path id="106" fill="none" stroke="black" stroke-width="4.5" d="M 552.0 620.0 C 551.7 620.0 553.7 617.0 550.0 620.0 C 546.3 623.0 536.5 633.0 530.0 638.0 C 523.5 643.0 514.2 648.0 511.0 650.0"/>
  <path id="107" fill="none" stroke="black" stroke-width="6.0" d="M 510.0 650.0 L 494.0 653.0"/>
  <path id="108" fill="none" stroke="black" stroke-width="4.5" d="M 535.0 677.0 C 531.0 678.3 516.7 683.7 511.0 685.0 C 505.3 686.3 503.5 685.5 501.0 685.0 C 498.5 684.5 496.8 682.5 496.0 682.0"/>
  <path id="109" fill="none" stroke="black" stroke-width="2.8" d="M 550.0 662.0 L 536.0 677.0"/>
  <path id="110" fill="none" stroke="black" stroke-width="4.5" d="M 536.0 678.0 C 534.0 681.5 526.0 695.2 524.0 699.0 C 522.0 702.8 523.2 700.0 524.0 701.0 C 524.8 702.0 526.3 704.2 529.0 705.0 C 531.7 705.8 536.8 706.2 540.0 706.0 C 543.2 705.8 543.2 706.0 548.0 704.0 C 552.8 702.0 565.5 695.7 569.0 694.0"/>
  <path id="111" fill="none" stroke="black" stroke-width="5.7" d="M 493.0 654.0 C 490.2 657.7 480.5 671.0 476.0 676.0 C 471.5 681.0 467.7 682.7 466.0 684.0"/>
  <path id="112" fill="none" stroke="black" stroke-width="6.3" d="M 427.0 663.0 C 427.5 662.3 430.5 660.5 430.0 659.0 C 429.5 657.5 426.2 654.5 424.0 654.0 C 421.8 653.5 418.8 654.8 417.0 656.0 C 415.2 657.2 413.7 658.3 413.0 661.0 C 412.3 663.7 411.5 668.3 413.0 672.0 C 414.5 675.7 418.8 680.5 422.0 683.0 C 425.2 685.5 427.2 686.3 432.0 687.0 C 436.8 687.7 445.5 687.5 451.0 687.0 C 456.5 686.5 462.7 684.5 465.0 684.0"/>
  <path id="113" fill="none" stroke="black" stroke-width="6.3" d="M 466.0 685.0 C 465.8 685.8 467.0 686.5 465.0 690.0 C 463.0 693.5 456.2 702.3 454.0 706.0 C 451.8 709.7 452.3 711.0 452.0 712.0"/>
  <path id="114" fill="none" stroke="black" stroke-width="4.5" d="M 570.0 695.0 C 568.7 697.7 563.5 707.3 562.0 711.0 C 560.5 714.7 560.7 715.5 561.0 717.0 C 561.3 718.5 562.2 719.3 564.0 720.0 C 565.8 720.7 570.7 720.8 572.0 721.0"/>
  <path id="115" fill="none" stroke="black" stroke-width="2.8" d="M 592.0 665.0 C 589.8 668.2 582.7 679.3 579.0 684.0 C 575.3 688.7 571.5 691.5 570.0 693.0"/>
  <path id="116" fill="none" stroke="black" stroke-width="6.0" d="M 521.0 787.0 C 517.7 788.3 505.8 793.5 501.0 795.0 C 496.2 796.5 493.5 795.8 492.0 796.0"/>
  <path id="117" fill="none" stroke="black" stroke-width="6.0" d="M 359.0 967.0 C 358.3 969.3 356.2 977.8 355.0 981.0 C 353.8 984.2 353.7 984.3 352.0 986.0 C 350.3 987.7 346.2 990.2 345.0 991.0"/>
  <path id="118" fill="none" stroke="black" stroke-width="6.3" d="M 314.0 953.0 C 314.0 952.0 315.3 948.3 314.0 947.0 C 312.7 945.7 308.3 944.5 306.0 945.0 C 303.7 945.5 301.3 948.3 300.0 950.0 C 298.7 951.7 298.3 953.5 298.0 955.0 C 297.7 956.5 297.3 957.0 298.0 959.0 C 298.7 961.0 299.7 964.5 302.0 967.0 C 304.3 969.5 306.7 972.7 312.0 974.0 C 317.3 975.3 326.3 976.3 334.0 975.0 C 341.7 973.7 354.0 967.5 358.0 966.0"/>
  <path id="119" fill="none" stroke="black" stroke-width="4.0" d="M 369.0 931.0 C 368.7 931.5 368.2 929.2 367.0 934.0 C 365.8 938.8 363.3 954.8 362.0 960.0 C 360.7 965.2 359.5 964.2 359.0 965.0"/>
  <path id="120" fill="none" stroke="black" stroke-width="5.7" d="M 585.0 826.0 C 582.5 828.5 572.5 838.2 570.0 841.0 C 567.5 843.8 570.0 842.7 570.0 843.0"/>
  <path id="121" fill="none" stroke="black" stroke-width="4.5" d="M 573.0 722.0 C 572.7 723.2 572.8 726.2 571.0 729.0 C 569.2 731.8 563.5 737.3 562.0 739.0"/>
  <path id="122" fill="none" stroke="black" stroke-width="5.7" d="M 562.0 740.0 C 559.8 743.7 555.5 754.2 549.0 762.0 C 542.5 769.8 527.3 782.8 523.0 787.0"/>
  <path id="123" fill="none" stroke="black" stroke-width="4.0" d="M 694.0 637.0 L 687.0 656.0"/>
  <path id="124" fill="none" stroke="black" stroke-width="6.3" d="M 491.0 870.0 C 490.7 870.7 491.5 872.2 489.0 874.0 C 486.5 875.8 478.2 879.8 476.0 881.0"/>
  <path id="125" fill="none" stroke="black" stroke-width="4.0" d="M 660.0 651.0 C 659.7 653.2 657.7 661.3 658.0 664.0 C 658.3 666.7 661.3 666.5 662.0 667.0"/>
  <path id="126" fill="none" stroke="black" stroke-width="6.0" d="M 522.0 788.0 C 521.7 789.8 519.7 796.7 520.0 799.0 C 520.3 801.3 523.3 801.5 524.0 802.0"/>
  <path id="127" fill="none" stroke="black" stroke-width="4.5" d="M 554.0 622.0 C 553.7 623.2 551.3 627.2 552.0 629.0 C 552.7 630.8 554.2 632.7 558.0 633.0 C 561.8 633.3 569.2 632.7 575.0 631.0 C 580.8 629.3 590.0 624.3 593.0 623.0"/>
  <path id="128" fill="none" stroke="black" stroke-width="3.4" d="M 604.0 611.0 L 594.0 622.0"/>
  <path id="129" fill="none" stroke="black" stroke-width="4.0" d="M 643.0 633.0 C 642.2 633.5 640.0 635.5 638.0 636.0 C 636.0 636.5 632.2 636.0 631.0 636.0"/>
  <path id="130" fill="none" stroke="black" stroke-width="3.4" d="M 636.0 624.0 L 630.0 635.0"/>
  <path id="131" fill="none" stroke="black" stroke-width="7.2" d="M 955.0 321.0 C 960.7 325.0 983.0 341.2 989.0 345.0 C 995.0 348.8 990.7 344.2 991.0 344.0"/>
  <path id="132" fill="none" stroke="black" stroke-width="5.7" d="M 908.0 260.0 C 918.0 268.5 955.0 299.5 968.0 311.0 C 981.0 322.5 981.7 324.2 986.0 329.0 C 990.3 333.8 992.8 337.8 994.0 340.0 C 995.2 342.2 993.2 341.7 993.0 342.0"/>
  <path id="133" fill="none" stroke="black" stroke-width="6.3" d="M 796.0 257.0 C 796.2 256.5 794.7 256.5 797.0 254.0 C 799.3 251.5 804.5 245.8 810.0 242.0 C 815.5 238.2 823.2 233.7 830.0 231.0 C 836.8 228.3 845.0 226.8 851.0 226.0 C 857.0 225.2 861.3 225.5 866.0 226.0 C 870.7 226.5 874.3 227.0 879.0 229.0 C 883.7 231.0 889.8 234.5 894.0 238.0 C 898.2 241.5 901.8 246.5 904.0 250.0 C 906.2 253.5 906.5 257.5 907.0 259.0"/>
  <path id="134" fill="none" stroke="black" stroke-width="2.8" d="M 820.0 251.0 C 818.3 251.3 813.3 251.8 810.0 253.0 C 806.7 254.2 802.3 257.3 800.0 258.0 C 797.7 258.7 796.7 257.2 796.0 257.0"/>
  <path id="135" fill="none" stroke="black" stroke-width="8.5" d="M 796.0 257.0 L 783.0 265.0"/>
  <path id="136" fill="none" stroke="black" stroke-width="6.0" d="M 782.0 266.0 C 781.7 266.8 781.8 269.0 780.0 271.0 C 778.2 273.0 772.5 276.8 771.0 278.0"/>
  <path id="137" fill="none" stroke="black" stroke-width="6.0" d="M 760.0 256.0 C 759.5 255.3 758.5 252.7 757.0 252.0 C 755.5 251.3 752.8 251.2 751.0 252.0 C 749.2 252.8 746.8 254.7 746.0 257.0 C 745.2 259.3 745.7 263.8 746.0 266.0 C 746.3 268.2 746.3 268.3 748.0 270.0 C 749.7 271.7 752.2 274.7 756.0 276.0 C 759.8 277.3 768.5 277.7 771.0 278.0"/>
  <path id="138" fill="none" stroke="black" stroke-width="5.7" d="M 771.0 278.0 C 770.7 279.0 770.8 280.8 769.0 284.0 C 767.2 287.2 762.3 294.0 760.0 297.0 C 757.7 300.0 757.7 300.7 755.0 302.0 C 752.3 303.3 745.8 304.5 744.0 305.0"/>
  <path id="139" fill="none" stroke="black" stroke-width="6.0" d="M 754.0 260.0 C 754.3 260.7 754.5 262.8 756.0 264.0 C 757.5 265.2 758.8 266.8 763.0 267.0 C 767.2 267.2 778.0 265.3 781.0 265.0"/>
  <path id="140" fill="none" stroke="black" stroke-width="6.3" d="M 481.0 650.0 C 480.3 650.2 481.0 648.3 477.0 651.0 C 473.0 653.7 462.7 662.7 457.0 666.0 C 451.3 669.3 448.0 670.2 443.0 671.0 C 438.0 671.8 430.3 671.5 427.0 671.0 C 423.7 670.5 423.8 669.2 423.0 668.0 C 422.2 666.8 422.2 664.7 422.0 664.0"/>
  <path id="141" fill="none" stroke="black" stroke-width="6.3" d="M 683.0 530.0 C 679.5 529.7 668.7 527.8 662.0 528.0 C 655.3 528.2 649.7 529.5 643.0 531.0 C 636.3 532.5 630.8 533.5 622.0 537.0 C 613.2 540.5 598.7 547.3 590.0 552.0 C 581.3 556.7 578.7 558.5 570.0 565.0 C 561.3 571.5 552.5 577.8 538.0 591.0 C 523.5 604.2 492.3 634.3 483.0 644.0 C 473.7 653.7 482.2 648.2 482.0 649.0"/>
  <path id="142" fill="none" stroke="black" stroke-width="6.3" d="M 703.0 490.0 C 702.8 493.0 702.5 504.0 702.0 508.0 C 701.5 512.0 701.2 511.5 700.0 514.0 C 698.8 516.5 696.8 520.5 695.0 523.0 C 693.2 525.5 690.8 527.8 689.0 529.0 C 687.2 530.2 684.8 529.8 684.0 530.0"/>
  <path id="143" fill="none" stroke="black" stroke-width="6.3" d="M 659.0 253.0 C 658.7 253.2 659.3 249.3 657.0 254.0 C 654.7 258.7 648.7 271.3 645.0 281.0 C 641.3 290.7 637.2 304.0 635.0 312.0 C 632.8 320.0 632.5 322.5 632.0 329.0 C 631.5 335.5 631.7 345.0 632.0 351.0 C 632.3 357.0 632.7 358.7 634.0 365.0 C 635.3 371.3 637.5 381.7 640.0 389.0 C 642.5 396.3 645.3 402.3 649.0 409.0 C 652.7 415.7 655.3 420.3 662.0 429.0 C 668.7 437.7 683.0 453.3 689.0 461.0 C 695.0 468.7 695.7 470.3 698.0 475.0 C 700.3 479.7 702.2 486.7 703.0 489.0"/>
  <path id="144" fill="none" stroke="black" stroke-width="4.0" d="M 683.0 531.0 C 682.3 531.8 683.2 534.5 679.0 536.0 C 674.8 537.5 661.5 539.3 658.0 540.0"/>
  <path id="145" fill="none" stroke="black" stroke-width="2.4" d="M 704.0 490.0 C 704.7 490.5 707.0 490.7 708.0 493.0 C 709.0 495.3 709.7 502.2 710.0 504.0"/>
  <path id="146" fill="none" stroke="black" stroke-width="6.3" d="M 639.0 192.0 C 641.3 194.7 649.7 203.3 653.0 208.0 C 656.3 212.7 657.7 216.0 659.0 220.0 C 660.3 224.0 660.8 226.7 661.0 232.0 C 661.2 237.3 660.2 248.7 660.0 252.0"/>
  <path id="147" fill="none" stroke="black" stroke-width="2.8" d="M 639.0 191.0 C 640.7 191.0 645.3 189.5 649.0 191.0 C 652.7 192.5 659.0 198.5 661.0 200.0"/>
  <path id="148" fill="none" stroke="black" stroke-width="6.2" d="M 603.0 181.0 C 605.5 182.0 612.2 185.3 618.0 187.0 C 623.8 188.7 634.7 190.3 638.0 191.0"/>
  <path id="149" fill="none" stroke="black" stroke-width="6.0" d="M 602.0 181.0 C 590.5 183.8 545.5 195.3 533.0 198.0 C 520.5 200.7 528.0 197.2 527.0 197.0"/>
  <path id="150" fill="none" stroke="black" stroke-width="4.0" d="M 607.0 168.0 C 601.5 169.3 586.3 172.2 574.0 176.0 C 561.7 179.8 540.8 187.7 533.0 191.0 C 525.2 194.3 528.0 195.2 527.0 196.0"/>
  <path id="151" fill="none" stroke="black" stroke-width="6.3" d="M 526.0 197.0 C 521.0 198.8 503.3 204.8 496.0 208.0 C 488.7 211.2 485.3 214.5 482.0 216.0 C 478.7 217.5 477.0 216.8 476.0 217.0"/>
  <path id="152" fill="none" stroke="black" stroke-width="6.0" d="M 683.0 133.0 C 682.5 132.2 684.2 130.7 680.0 128.0 C 675.8 125.3 663.2 119.2 658.0 117.0 C 652.8 114.8 653.3 115.3 649.0 115.0 C 644.7 114.7 636.3 114.7 632.0 115.0 C 627.7 115.3 626.7 115.7 623.0 117.0 C 619.3 118.3 613.5 121.0 610.0 123.0 C 606.5 125.0 605.0 125.7 602.0 129.0 C 599.0 132.3 595.0 140.2 592.0 143.0 C 589.0 145.8 588.7 143.3 584.0 146.0 C 579.3 148.7 575.8 152.5 564.0 159.0 C 552.2 165.5 525.3 178.3 513.0 185.0 C 500.7 191.7 496.2 194.5 490.0 199.0 C 483.8 203.5 478.5 209.2 476.0 212.0 C 473.5 214.8 475.2 215.3 475.0 216.0"/>
  <path id="153" fill="none" stroke="black" stroke-width="6.0" d="M 684.0 134.0 C 688.5 135.7 704.3 142.3 711.0 144.0 C 717.7 145.7 720.8 144.5 724.0 144.0 C 727.2 143.5 729.0 141.5 730.0 141.0"/>
  <path id="154" fill="none" stroke="black" stroke-width="4.0" d="M 667.0 133.0 L 682.0 134.0"/>
  <path id="155" fill="none" stroke="black" stroke-width="2.0" d="M 662.0 257.0 L 656.0 275.0"/>
  <path id="156" fill="none" stroke="black" stroke-width="4.2" d="M 887.0 280.0 C 891.0 281.7 900.2 284.0 911.0 290.0 C 921.8 296.0 945.2 311.7 952.0 316.0"/>
  <path id="157" fill="none" stroke="black" stroke-width="6.0" d="M 745.0 299.0 C 744.0 298.8 740.5 297.2 739.0 298.0 C 737.5 298.8 736.3 302.3 736.0 304.0 C 735.7 305.7 735.8 306.5 737.0 308.0 C 738.2 309.5 740.0 312.2 743.0 313.0 C 746.0 313.8 751.0 314.2 755.0 313.0 C 759.0 311.8 764.2 307.3 767.0 306.0 C 769.8 304.7 771.2 305.2 772.0 305.0"/>
  <path id="158" fill="none" stroke="black" stroke-width="6.3" d="M 773.0 306.0 C 772.2 310.7 768.8 327.7 768.0 334.0 C 767.2 340.3 767.3 338.5 768.0 344.0 C 768.7 349.5 769.7 358.5 772.0 367.0 C 774.3 375.5 776.7 383.0 782.0 395.0 C 787.3 407.0 798.5 425.8 804.0 439.0 C 809.5 452.2 813.0 462.7 815.0 474.0 C 817.0 485.3 816.7 498.0 816.0 507.0 C 815.3 516.0 811.8 524.5 811.0 528.0"/>
  <path id="159" fill="none" stroke="black" stroke-width="6.3" d="M 810.0 529.0 C 808.7 531.0 804.8 537.5 802.0 541.0 C 799.2 544.5 796.7 547.8 793.0 550.0 C 789.3 552.2 782.2 553.3 780.0 554.0"/>
  <path id="160" fill="none" stroke="black" stroke-width="6.3" d="M 677.0 303.0 C 676.7 305.8 675.2 314.0 675.0 320.0 C 674.8 326.0 675.3 333.3 676.0 339.0 C 676.7 344.7 677.3 348.2 679.0 354.0 C 680.7 359.8 683.3 367.7 686.0 374.0 C 688.7 380.3 691.0 385.3 695.0 392.0 C 699.0 398.7 701.5 404.0 710.0 414.0 C 718.5 424.0 737.0 441.7 746.0 452.0 C 755.0 462.3 759.7 469.2 764.0 476.0 C 768.3 482.8 769.8 487.2 772.0 493.0 C 774.2 498.8 775.8 501.0 777.0 511.0 C 778.2 521.0 778.7 546.0 779.0 553.0"/>
  <path id="161" fill="none" stroke="black" stroke-width="4.5" d="M 799.0 273.0 C 796.3 275.7 787.3 283.8 783.0 289.0 C 778.7 294.2 774.7 301.5 773.0 304.0"/>
  <path id="162" fill="none" stroke="black" stroke-width="2.8" d="M 812.0 529.0 C 812.2 529.7 813.2 531.3 813.0 533.0 C 812.8 534.7 813.5 534.3 811.0 539.0 C 808.5 543.7 800.2 557.3 798.0 561.0"/>
  <path id="163" fill="none" stroke="black" stroke-width="2.0" d="M 676.0 302.0 C 675.3 302.3 673.0 303.0 672.0 304.0 C 671.0 305.0 670.7 303.8 670.0 308.0 C 669.3 312.2 668.3 325.5 668.0 329.0"/>
  <path id="164" fill="none" stroke="black" stroke-width="6.0" d="M 702.0 189.0 C 702.0 193.8 702.3 210.7 702.0 218.0 C 701.7 225.3 701.8 225.5 700.0 233.0 C 698.2 240.5 694.7 252.8 691.0 263.0 C 687.3 273.2 680.3 287.7 678.0 294.0 C 675.7 300.3 677.2 299.8 677.0 301.0"/>
  <path id="165" fill="none" stroke="black" stroke-width="6.0" d="M 731.0 182.0 C 732.0 181.8 735.5 180.5 737.0 181.0 C 738.5 181.5 739.7 183.0 740.0 185.0 C 740.3 187.0 740.3 190.7 739.0 193.0 C 737.7 195.3 735.2 198.0 732.0 199.0 C 728.8 200.0 724.8 200.7 720.0 199.0 C 715.2 197.3 705.8 190.7 703.0 189.0"/>
  <path id="166" fill="none" stroke="black" stroke-width="4.5" d="M 675.0 153.0 C 677.5 155.2 685.5 160.2 690.0 166.0 C 694.5 171.8 700.0 184.3 702.0 188.0"/>
  <path id="167" fill="none" stroke="black" stroke-width="4.5" d="M 779.0 557.0 C 779.3 557.3 780.3 556.3 781.0 559.0 C 781.7 561.7 782.7 568.5 783.0 573.0 C 783.3 577.5 783.8 579.8 783.0 586.0 C 782.2 592.2 779.7 604.0 778.0 610.0 C 776.3 616.0 773.8 620.0 773.0 622.0"/>
  <path id="168" fill="none" stroke="black" stroke-width="4.0" d="M 778.0 557.0 C 777.3 557.7 775.3 557.8 774.0 561.0 C 772.7 564.2 771.5 571.8 770.0 576.0 C 768.5 580.2 765.8 584.3 765.0 586.0"/>
  <path id="169" fill="none" stroke="black" stroke-width="6.0" d="M 725.0 136.0 C 724.8 135.5 723.7 134.0 724.0 133.0 C 724.3 132.0 725.3 130.5 727.0 130.0 C 728.7 129.5 732.3 129.5 734.0 130.0 C 735.7 130.5 736.3 130.7 737.0 133.0 C 737.7 135.3 738.2 141.5 738.0 144.0 C 737.8 146.5 738.2 146.0 736.0 148.0 C 733.8 150.0 729.5 154.3 725.0 156.0 C 720.5 157.7 711.7 157.7 709.0 158.0"/>
  <path id="170" fill="none" stroke="black" stroke-width="6.3" d="M 709.0 159.0 C 710.5 163.0 715.2 177.8 718.0 183.0 C 720.8 188.2 723.7 188.8 726.0 190.0 C 728.3 191.2 731.0 190.0 732.0 190.0"/>
  <path id="171" fill="none" stroke="black" stroke-width="4.5" d="M 686.0 145.0 C 687.0 145.3 688.3 144.8 692.0 147.0 C 695.7 149.2 705.3 156.2 708.0 158.0"/>
  <path id="172" fill="none" stroke="black" stroke-width="6.3" d="M 370.0 887.0 C 370.0 887.8 371.7 886.3 370.0 892.0 C 368.3 897.7 362.7 914.0 360.0 921.0 C 357.3 928.0 356.7 929.5 354.0 934.0 C 351.3 938.5 347.3 944.3 344.0 948.0 C 340.7 951.7 337.2 954.0 334.0 956.0 C 330.8 958.0 328.0 959.2 325.0 960.0 C 322.0 960.8 318.5 961.2 316.0 961.0 C 313.5 960.8 311.0 959.3 310.0 959.0"/>
  <path id="173" fill="none" stroke="black" stroke-width="6.3" d="M 396.0 871.0 C 394.8 871.3 393.3 870.5 389.0 873.0 C 384.7 875.5 373.2 883.8 370.0 886.0"/>
  <path id="174" fill="none" stroke="black" stroke-width="6.3" d="M 322.0 865.0 C 322.2 864.2 323.5 861.5 323.0 860.0 C 322.5 858.5 320.5 856.8 319.0 856.0 C 317.5 855.2 315.7 854.8 314.0 855.0 C 312.3 855.2 310.8 855.2 309.0 857.0 C 307.2 858.8 304.0 863.0 303.0 866.0 C 302.0 869.0 302.7 872.7 303.0 875.0 C 303.3 877.3 302.8 877.7 305.0 880.0 C 307.2 882.3 312.3 887.0 316.0 889.0 C 319.7 891.0 322.3 891.5 327.0 892.0 C 331.7 892.5 337.0 893.0 344.0 892.0 C 351.0 891.0 364.8 887.0 369.0 886.0"/>
  <path id="175" fill="none" stroke="black" stroke-width="5.7" d="M 469.0 782.0 C 465.8 785.5 457.2 793.5 450.0 803.0 C 442.8 812.5 434.8 827.8 426.0 839.0 C 417.2 850.2 401.8 864.8 397.0 870.0"/>
  <path id="176" fill="none" stroke="black" stroke-width="2.8" d="M 396.0 878.0 C 394.8 879.7 391.2 884.0 389.0 888.0 C 386.8 892.0 384.8 895.7 383.0 902.0 C 381.2 908.3 378.8 922.0 378.0 926.0"/>
  <path id="177" fill="none" stroke="black" stroke-width="4.0" d="M 660.0 135.0 C 658.2 135.3 652.5 137.3 649.0 137.0 C 645.5 136.7 642.3 133.8 639.0 133.0 C 635.7 132.2 631.8 131.7 629.0 132.0 C 626.2 132.3 624.0 133.2 622.0 135.0 C 620.0 136.8 617.8 141.7 617.0 143.0"/>
  <path id="178" fill="none" stroke="black" stroke-width="6.0" d="M 618.0 144.0 C 619.5 144.2 624.8 145.3 627.0 145.0 C 629.2 144.7 629.5 142.5 631.0 142.0 C 632.5 141.5 634.3 141.5 636.0 142.0 C 637.7 142.5 640.2 144.5 641.0 145.0"/>
  <path id="179" fill="none" stroke="black" stroke-width="4.0" d="M 641.0 146.0 C 640.3 147.0 638.7 150.5 637.0 152.0 C 635.3 153.5 634.3 154.8 631.0 155.0 C 627.7 155.2 619.3 153.3 617.0 153.0"/>
  <path id="180" fill="none" stroke="black" stroke-width="4.5" d="M 693.0 808.0 C 690.3 810.0 681.0 817.3 677.0 820.0 C 673.0 822.7 671.0 823.3 669.0 824.0 C 667.0 824.7 665.7 824.0 665.0 824.0"/>
  <path id="181" fill="none" stroke="black" stroke-width="4.5" d="M 680.0 798.0 C 677.7 801.0 668.7 811.8 666.0 816.0 C 663.3 820.2 664.3 821.8 664.0 823.0"/>
  <path id="182" fill="none" stroke="black" stroke-width="4.0" d="M 802.0 679.0 C 801.0 682.8 799.5 695.0 796.0 702.0 C 792.5 709.0 783.5 717.8 781.0 721.0"/>
  <path id="183" fill="none" stroke="black" stroke-width="4.0" d="M 859.0 255.0 C 859.5 256.0 860.5 259.3 862.0 261.0 C 863.5 262.7 864.8 264.3 868.0 265.0 C 871.2 265.7 878.8 265.0 881.0 265.0"/>
  <path id="184" fill="none" stroke="black" stroke-width="4.8" d="M 860.0 254.0 C 861.5 253.7 867.0 251.7 869.0 252.0 C 871.0 252.3 870.2 255.5 872.0 256.0 C 873.8 256.5 878.7 255.2 880.0 255.0"/>
  <path id="185" fill="none" stroke="black" stroke-width="4.0" d="M 842.0 243.0 C 843.0 243.5 843.3 246.0 848.0 246.0 C 852.7 246.0 865.3 243.2 870.0 243.0 C 874.7 242.8 874.0 243.5 876.0 245.0 C 878.0 246.5 881.0 250.8 882.0 252.0"/>
  <path id="186" fill="none" stroke="black" stroke-width="2.8" d="M 754.0 734.0 C 751.5 738.3 745.8 751.8 739.0 760.0 C 732.2 768.2 717.3 779.2 713.0 783.0"/>
  <path id="187" fill="none" stroke="black" stroke-width="4.0" d="M 582.0 602.0 L 567.0 606.0"/>
  <path id="188" fill="none" stroke="black" stroke-width="2.8" d="M 587.0 581.0 C 584.8 582.5 577.2 587.5 574.0 590.0 C 570.8 592.5 569.5 593.8 568.0 596.0 C 566.5 598.2 565.5 601.8 565.0 603.0"/>
  <path id="189" fill="none" stroke="black" stroke-width="2.8" d="M 819.0 603.0 C 817.3 607.2 812.8 620.5 809.0 628.0 C 805.2 635.5 799.8 642.8 796.0 648.0 C 792.2 653.2 787.7 657.2 786.0 659.0"/>
  <path id="190" fill="none" stroke="black" stroke-width="4.0" d="M 697.0 573.0 C 698.2 574.3 701.8 577.0 704.0 581.0 C 706.2 585.0 709.3 590.7 710.0 597.0 C 710.7 603.3 708.3 615.3 708.0 619.0"/>
</svg>
